<svg width="23" height="11" viewBox="0 0 23 11" fill="none" xmlns="http://www.w3.org/2000/svg">
<path d="M17.5001 10.0158C17.3685 10.0166 17.238 9.99133 17.1162 9.94157C16.9943 9.89181 16.8835 9.81848 16.7901 9.7258C16.6964 9.63283 16.622 9.52223 16.5712 9.40038C16.5204 9.27852 16.4943 9.14781 16.4943 9.0158C16.4943 8.88379 16.5204 8.75308 16.5712 8.63122C16.622 8.50936 16.6964 8.39876 16.7901 8.3058L20.1001 5.0158L16.9201 1.7058C16.7338 1.51844 16.6293 1.26498 16.6293 1.0008C16.6293 0.736612 16.7338 0.483161 16.9201 0.295798C17.0131 0.20207 17.1237 0.127675 17.2455 0.0769067C17.3674 0.026138 17.4981 0 17.6301 0C17.7621 0 17.8928 0.026138 18.0147 0.0769067C18.1365 0.127675 18.2471 0.20207 18.3401 0.295798L22.2001 4.2958C22.3833 4.48273 22.4859 4.73405 22.4859 4.9958C22.4859 5.25755 22.3833 5.50887 22.2001 5.6958L18.2001 9.6958C18.1103 9.79273 18.0023 9.87092 17.8821 9.92584C17.762 9.98077 17.6321 10.0113 17.5001 10.0158Z" fill="#F16214"/>
<line x1="20.0001" y1="5.01562" x2="1.00009" y2="5.01562" stroke="#F16214" stroke-width="2" stroke-linecap="round"/>
</svg>
