<svg width="23" height="11" viewBox="0 0 23 11" fill="none" xmlns="http://www.w3.org/2000/svg">
<path d="M5.50003 0.984204C5.63164 0.983443 5.7621 1.00867 5.88394 1.05843C6.00577 1.1082 6.11659 1.18152 6.21003 1.2742C6.30376 1.36717 6.37815 1.47777 6.42892 1.59963C6.47969 1.72149 6.50583 1.85219 6.50583 1.9842C6.50583 2.11621 6.47969 2.24692 6.42892 2.36878C6.37815 2.49064 6.30376 2.60124 6.21003 2.6942L2.90003 5.9842L6.08003 9.2942C6.26628 9.48157 6.37082 9.73502 6.37082 9.9992C6.37082 10.2634 6.26628 10.5168 6.08003 10.7042C5.98707 10.7979 5.87647 10.8723 5.75461 10.9231C5.63275 10.9739 5.50204 11 5.37003 11C5.23802 11 5.10731 10.9739 4.98545 10.9231C4.86359 10.8723 4.75299 10.7979 4.66003 10.7042L0.800032 6.7042C0.616805 6.51727 0.514175 6.26596 0.514175 6.0042C0.514175 5.74245 0.616805 5.49113 0.800032 5.3042L4.80003 1.3042C4.88979 1.20727 4.99786 1.12909 5.11801 1.07416C5.23816 1.01924 5.368 0.988661 5.50003 0.984204Z" fill="white"/>
<line x1="3.00003" y1="5.98438" x2="22" y2="5.98438" stroke="white" stroke-width="2" stroke-linecap="round"/>
</svg>
